<!-- Generated by IcoMoon.io -->
<svg version="1.1" xmlns="http://www.w3.org/2000/svg" width="48" height="48" viewBox="0 0 48 48">
<title>search</title>
<path d="M30 0.007c-9.941 0-18 8.059-18 18 0 3.039 0.761 5.899 2.092 8.412l-12.516 12.513 0.010 0.009c-0.978 0.961-1.587 2.294-1.587 3.774 0 2.924 2.37 5.294 5.293 5.294 1.478 0 2.811-0.609 3.773-1.589l-0.003-0.003 12.511-12.51c2.514 1.337 5.379 2.1 8.425 2.1 9.941 0 18-8.060 18-18s-8.059-18-18-18zM7.192 44.545c-0.483 0.501-1.152 0.815-1.899 0.815-1.463 0-2.647-1.184-2.647-2.646 0-0.747 0.315-1.415 0.814-1.899l-0.013-0.012 12.099-12.099c1.057 1.427 2.318 2.686 3.741 3.747l-12.095 12.094zM30 33.009c-8.283 0-15-6.718-15-15 0-8.283 6.717-15 15-15 8.282 0 15 6.717 15 15 0 8.282-6.718 15-15 15zM30 7.508c0.412 0 0.75 0.336 0.75 0.75s-0.338 0.75-0.75 0.75c-4.971 0-9 4.030-9 9 0 0.414-0.336 0.75-0.75 0.75s-0.75-0.336-0.75-0.75c0-5.799 4.7-10.5 10.5-10.5z"></path>
</svg>
