<!-- Generated by IcoMoon.io -->
<svg version="1.1" xmlns="http://www.w3.org/2000/svg" width="45" height="48" viewBox="0 0 45 48">
<title>search1</title>
<path d="M30.857 22.286c0-6.616-5.384-12-12-12s-12 5.384-12 12 5.384 12 12 12 12-5.384 12-12zM44.571 44.571c0 1.875-1.554 3.429-3.429 3.429-0.911 0-1.795-0.375-2.411-1.018l-9.188-9.161c-3.134 2.17-6.884 3.321-10.688 3.321-10.42 0-18.857-8.438-18.857-18.857s8.438-18.857 18.857-18.857 18.857 8.438 18.857 18.857c0 3.804-1.152 7.554-3.321 10.688l9.188 9.188c0.616 0.616 0.991 1.5 0.991 2.411z"></path>
</svg>
