<!-- Generated by IcoMoon.io -->
<svg version="1.1" xmlns="http://www.w3.org/2000/svg" width="48" height="48" viewBox="0 0 48 48">
<title>user-circle-o</title>
<path d="M24 0c13.259 0 24 10.741 24 24 0 13.179-10.688 24-24 24-13.286 0-24-10.795-24-24 0-13.259 10.741-24 24-24zM40.58 36.188c2.491-3.429 3.991-7.634 3.991-12.188 0-11.33-9.241-20.571-20.571-20.571s-20.571 9.241-20.571 20.571c0 4.554 1.5 8.759 3.991 12.188 0.964-4.795 3.295-8.759 8.196-8.759 2.17 2.116 5.116 3.429 8.384 3.429s6.214-1.313 8.384-3.429c4.902 0 7.232 3.964 8.196 8.759zM34.286 18.857c0-5.679-4.607-10.286-10.286-10.286s-10.286 4.607-10.286 10.286 4.607 10.286 10.286 10.286 10.286-4.607 10.286-10.286z"></path>
</svg>
